<svg width="100" height="10" viewBox="0 0 100 10" fill="none" xmlns="http://www.w3.org/2000/svg">
<line x1="60" y1="9.25" x2="100" y2="9.25" stroke="white" stroke-width="1.5"/>
<path d="M2.64551 0.211268H0V9.78873H2.64551V0.211268Z" fill="white"/>
<path d="M6.32267 0.211268H4.3526V9.78873H6.99812V4.69014H7.06848L11.5011 9.78873H13.4993V0.211268H10.8538V5.38028H10.7835L6.32267 0.211268Z" fill="white"/>
<path d="M26.7302 0.211268H24.0847V5.98592C24.0847 7.23944 23.3811 7.64789 22.5086 7.64789C21.3547 7.64789 20.9326 6.88732 20.9326 5.98592V0.211268H18.2871V6.30986C18.2871 8.11268 19.2721 10 22.5086 10C25.3793 10 26.7302 8.11268 26.7302 6.12676V0.211268Z" fill="white"/>
<path d="M27.8694 8.98592C28.6153 9.56338 29.9943 10 31.4156 10C33.1605 10 35.0602 9.23944 35.0602 7.1831C35.0602 6.11268 34.638 5.05634 32.6539 4.09859C31.6548 3.61972 30.8105 3.26761 30.8105 2.83099C30.8105 2.46479 31.1763 2.3662 31.5985 2.3662C32.3865 2.3662 33.259 2.64789 34.1314 3.22535L34.8491 0.901409C33.8781 0.352113 32.8087 0 31.4578 0C29.3751 0 28.165 1.35211 28.165 2.69014C28.165 4.29577 29.1641 5.1831 31.0638 6.05634C31.7674 6.38028 32.4006 6.60563 32.4006 7.02817C32.4006 7.3662 32.0629 7.6338 31.2186 7.6338C30.3742 7.6338 29.4033 7.28169 28.6434 6.70423L27.8694 8.98592Z" fill="white"/>
<path d="M44.746 0.211268H42.1005V5.98592C42.1005 7.23944 41.3969 7.64789 40.5245 7.64789C39.3706 7.64789 38.9484 6.88732 38.9484 5.98592V0.211268H36.3029V6.30986C36.3029 8.11268 37.2879 10 40.5245 10C43.3951 10 44.746 8.11268 44.746 6.12676V0.211268Z" fill="white"/>
<path d="M53.9096 5.46479L54.5287 9.78873H57.2727L55.6826 0.211268H54.0362L51.5736 5.50704H51.5173L48.9703 0.211268H47.3239L45.7338 9.78873H48.4778L49.097 5.46479H49.1673L51.0811 9.78873H51.9254L53.8392 5.46479H53.9096Z" fill="white"/>
</svg>
