<svg width="50" height="50" viewBox="0 0 50 50" fill="none" xmlns="http://www.w3.org/2000/svg">
<line x1="2" y1="43.5" x2="49" y2="43.5" stroke="white" stroke-width="3"/>
<path d="M5.12149 5H2V16.3617H5.12149V5Z" fill="white"/>
<path d="M9.46023 5H7.13572V16.3617H10.2572V10.3133H10.3402L15.5704 16.3617H17.9281V5H14.8066V11.132H14.7236L9.46023 5Z" fill="white"/>
<path d="M11.9623 23.3876H8.84078V30.2381C8.84078 31.7251 8.0106 32.2097 6.98117 32.2097C5.61967 32.2097 5.12156 31.3074 5.12156 30.2381V23.3876H2.00007V30.6224C2.00007 32.7611 3.16233 35 6.98117 35C10.3683 35 11.9623 32.7611 11.9623 30.4052V23.3876Z" fill="white"/>
<path d="M13.3065 33.797C14.1865 34.482 15.8137 35 17.4906 35C19.5495 35 21.791 34.0977 21.791 31.6583C21.791 30.3885 21.2929 29.1353 18.9518 27.9992C17.7729 27.4311 16.7767 27.0134 16.7767 26.4954C16.7767 26.061 17.2084 25.944 17.7065 25.944C18.6363 25.944 19.6657 26.2782 20.6952 26.9632L21.5419 24.2063C20.3963 23.5547 19.1344 23.137 17.5405 23.137C15.0831 23.137 13.6552 24.741 13.6552 26.3283C13.6552 28.2331 14.8341 29.2857 17.0755 30.3216C17.9057 30.7059 18.6529 30.9733 18.6529 31.4745C18.6529 31.8755 18.2544 32.193 17.2582 32.193C16.262 32.193 15.1163 31.7753 14.2197 31.0902L13.3065 33.797Z" fill="white"/>
<path d="M33.2195 23.3876H30.098V30.2381C30.098 31.7251 29.2678 32.2097 28.2384 32.2097C26.8769 32.2097 26.3788 31.3074 26.3788 30.2381V23.3876H23.2573V30.6224C23.2573 32.7611 24.4196 35 28.2384 35C31.6255 35 33.2195 32.7611 33.2195 30.4052V23.3876Z" fill="white"/>
<path d="M44.0317 29.6199L44.7623 34.7494H48L46.1238 23.3876H44.1812L41.2755 29.67H41.2091L38.2038 23.3876H36.2612L34.385 34.7494H37.6227L38.3533 29.6199H38.4363L40.6944 34.7494H41.6906L43.9487 29.6199H44.0317Z" fill="white"/>
</svg>
