<svg width="48" height="25" viewBox="0 0 48 25" fill="none" xmlns="http://www.w3.org/2000/svg">
<path d="M12.1209 7.48H8.76086V17H12.1209V7.48ZM20.792 8.84H17.912V13.652C17.912 14.288 17.528 14.66 17.012 14.66C16.376 14.66 16.112 14.276 16.112 13.652V8.84H13.232V13.976C13.232 15.224 13.952 17.18 17.012 17.18C19.436 17.18 20.792 15.548 20.792 13.832V8.84ZM24.2355 8.84H21.7515V17H24.5115V13.076H24.5955L27.4275 17H29.9115V8.84H27.1515V12.8H27.0675L24.2355 8.84ZM39.5447 12.98C39.5447 10.364 37.4687 8.66 35.1407 8.66C32.7887 8.66 30.7127 10.4 30.7127 12.98C30.7127 15.704 32.9687 17.18 35.1287 17.18C37.3607 17.18 39.5447 15.644 39.5447 12.98ZM36.6647 12.932C36.6647 14.18 35.8967 14.66 35.1407 14.66C34.3607 14.66 33.5927 14.18 33.5927 12.932C33.5927 11.78 34.3247 11.18 35.1047 11.18C35.9327 11.18 36.6647 11.792 36.6647 12.932Z" fill="white"/>
</svg>
